<?xml version="1.0" standalone="no"?>
<!DOCTYPE svg PUBLIC "-//W3C//DTD SVG 20010904//EN"
 "http://www.w3.org/TR/2001/REC-SVG-20010904/DTD/svg10.dtd">
<svg version="1.0" xmlns="http://www.w3.org/2000/svg"
 width="125.000000pt" height="125.000000pt" viewBox="0 0 125.000000 125.000000"
 preserveAspectRatio="xMidYMid meet">
<metadata>
Created by potrace 1.11, written by Peter Selinger 2001-2013
</metadata>
<g transform="translate(0.000000,125.000000) scale(0.100000,-0.100000)"
fill="#000000" stroke="none">
<path d="M538 1143 l-87 -88 50 -34 50 -34 32 31 c18 18 37 32 42 32 5 0 65
-55 133 -122 l123 -123 18 24 c11 14 26 37 34 51 l16 26 -162 162 -162 162
-87 -87z"/>
<path d="M60 1178 c0 -46 119 -318 139 -318 4 0 18 11 30 24 l22 24 -31 62
c-17 34 -30 70 -28 81 3 18 7 17 65 -10 70 -33 165 -95 233 -152 l45 -37 33
29 32 29 -75 52 c-126 88 -243 156 -323 186 -103 40 -142 48 -142 30z"/>
<path d="M1090 1166 c-72 -25 -230 -104 -230 -115 0 -4 11 -18 24 -30 l24 -22
61 30 c78 40 95 40 86 4 -10 -44 -71 -147 -139 -238 l-63 -82 27 -32 26 -33
70 99 c88 123 155 246 188 345 14 42 26 81 26 87 0 16 -27 13 -100 -13z"/>
<path d="M182 787 l-162 -162 83 -83 c45 -45 85 -82 89 -82 4 0 21 21 39 46
l31 46 -31 32 c-17 18 -31 36 -31 42 0 5 54 63 120 129 66 66 120 122 120 126
0 5 -84 69 -92 69 -2 0 -76 -73 -166 -163z"/>
<path d="M649 904 c-66 -55 -199 -182 -199 -189 0 -4 10 -19 23 -35 l22 -28
75 72 c41 39 99 92 128 117 l52 45 -28 27 -29 28 -44 -37z"/>
<path d="M677 777 l-27 -23 46 -44 c25 -25 77 -82 116 -128 l71 -83 28 27 28
27 -19 27 c-26 36 -200 220 -208 220 -4 -1 -19 -11 -35 -23z"/>
<path d="M1021 749 l-34 -50 31 -32 c18 -18 32 -37 32 -43 0 -5 -54 -63 -120
-129 -66 -66 -120 -122 -120 -126 0 -3 21 -20 46 -39 l46 -33 164 164 164 164
-87 87 -88 87 -34 -50z"/>
<path d="M336 721 l-28 -29 80 -89 c44 -48 96 -103 115 -122 l36 -34 29 24 29
24 -66 70 c-37 39 -89 96 -117 127 l-50 58 -28 -29z"/>
<path d="M293 533 c-68 -92 -114 -164 -155 -248 -40 -79 -85 -211 -76 -221 17
-16 328 112 328 135 0 4 -11 18 -24 30 l-25 23 -62 -31 c-100 -50 -109 -41
-58 62 36 71 73 127 134 201 l42 52 -27 33 -27 32 -50 -68z"/>
<path d="M740 593 c0 -7 -54 -60 -120 -120 l-120 -107 27 -28 26 -27 28 19
c15 11 72 63 126 114 l98 95 -32 33 c-18 18 -33 27 -33 21z"/>
<path d="M329 394 l-32 -46 164 -164 164 -164 87 87 87 87 -50 34 -51 34 -32
-31 c-18 -17 -36 -31 -42 -31 -5 0 -63 54 -129 120 -66 66 -123 120 -127 120
-4 0 -21 -21 -39 -46z"/>
<path d="M682 371 l-33 -26 68 -52 c97 -73 175 -121 267 -164 85 -39 194 -75
203 -66 16 16 -114 327 -136 327 -4 0 -18 -11 -30 -24 l-23 -25 31 -62 c49
-97 42 -106 -46 -65 -60 28 -157 92 -223 147 l-46 37 -32 -27z"/>
</g>
</svg>
